<?xml version="1.0" encoding="UTF-8"?>
<svg xmlns="http://www.w3.org/2000/svg" xmlns:xlink="http://www.w3.org/1999/xlink" width="16px" height="16px" viewBox="0 0 16 16" version="1.1">
<g id="surface1">
<path style=" stroke:none;fill-rule:nonzero;fill:rgb(5.490196%,38.823529%,61.176471%);fill-opacity:1;" d="M 9.117188 7.984375 L 14.773438 13.640625 C 15.085938 13.953125 15.085938 14.460938 14.773438 14.773438 C 14.460938 15.085938 13.953125 15.085938 13.640625 14.773438 L 7.984375 9.117188 L 2.328125 14.773438 C 2.015625 15.085938 1.507812 15.085938 1.195312 14.773438 C 0.882812 14.460938 0.882812 13.953125 1.195312 13.640625 L 6.851562 7.984375 L 1.195312 2.328125 C 0.882812 2.015625 0.882812 1.507812 1.195312 1.195312 C 1.507812 0.882812 2.015625 0.882812 2.328125 1.195312 L 7.984375 6.851562 L 13.640625 1.195312 C 13.953125 0.882812 14.460938 0.882812 14.773438 1.195312 C 15.085938 1.507812 15.085938 2.015625 14.773438 2.328125 Z M 9.117188 7.984375 "/>
</g>
</svg>
