<?xml version="1.0" encoding="UTF-8"?>
<svg xmlns="http://www.w3.org/2000/svg" xmlns:xlink="http://www.w3.org/1999/xlink" x="0" y="0" width="20" height="18" viewBox="0 0 20 20" version="1.1">
<g id="surface1">
<path style=" stroke:none;fill-rule:nonzero;fill:rgb(5.490196%,38.823529%,61.176471%);fill-opacity:1;" d="M 10 0 C 4.480469 0 0 4.480469 0 10 C 0 15.519531 4.480469 20 10 20 C 15.519531 20 20 15.519531 20 10 C 20 4.480469 15.519531 0 10 0 Z M 11.332031 14.664062 C 11.332031 15.398438 10.734375 16 10 16 C 9.265625 16 8.667969 15.398438 8.667969 14.664062 L 8.667969 10 C 8.667969 9.265625 9.265625 8.667969 10 8.667969 C 10.734375 8.667969 11.332031 9.265625 11.332031 10 Z M 10 7.460938 C 9.191406 7.460938 8.542969 6.804688 8.542969 6 C 8.542969 5.191406 9.191406 4.539062 10 4.539062 C 10.808594 4.539062 11.457031 5.191406 11.457031 6 C 11.457031 6.804688 10.808594 7.460938 10 7.460938 Z M 10 7.460938 "/>
</g>
</svg>
